<svg height="512pt" viewBox="-16 0 512 512" width="512pt" xmlns="http://www.w3.org/2000/svg"><path d="m195 376h-60v-50.800781c17.101562-5.398438 32.699219-14.398438 45-27 18.601562-18.898438 30-44.699219 30-73.199219l-30-73.199219c-19.199219-19.5-45.601562-31.800781-75-31.800781-57.898438 0-105 47.101562-105 105 0 47.398438 31.800781 87.300781 75 100.199219v50.800781h-60c-8.402344 0-15 6.597656-15 15v30c0 8.398438 6.597656 15 15 15h60v61c0 8.398438 6.597656 15 15 15h30c8.402344 0 15-6.601562 15-15v-61h60c8.402344 0 15-6.601562 15-15v-30c0-8.402344-6.597656-15-15-15zm-90-106c-24.902344 0-45-20.101562-45-45 0-24.902344 20.097656-45 45-45s45 20.097656 45 45c0 24.898438-20.097656 45-45 45zm0 0" fill="#da90f8"/><path d="m480 15v120c0 8.398438-6.597656 15-15 15h-30c-8.402344 0-15-6.601562-15-15v-32.699219l-72.898438 73.199219c7.796876 14.699219 12.898438 31.5 12.898438 49.5 0 57.898438-47.101562 105-105 105-29.398438 0-55.800781-12.300781-75-31.800781 18.601562-18.898438 30-44.699219 30-73.199219 0 24.898438 20.097656 45 45 45s45-20.101562 45-45c0-24.902344-20.097656-45-45-45s-45 20.097656-45 45h-60c0-28.5 11.398438-54.300781 30-73.199219 19.199219-19.5 45.601562-31.800781 75-31.800781 18 0 34.800781 5.097656 49.5 12.898438l73.199219-72.898438h-32.699219c-8.402344 0-15-6.601562-15-15v-30c0-8.402344 6.597656-15 15-15h120c8.402344 0 15 6.597656 15 15zm0 0" fill="#4bb9ec"/><path d="m360 225c0 57.898438-47.101562 105-105 105-29.398438 0-55.800781-12.300781-75-31.800781 18.601562-18.898438 30-44.699219 30-73.199219 0 24.898438 20.097656 45 45 45s45-20.101562 45-45zm0 0" fill="#0095ff"/><path d="m210 391v30c0 8.398438-6.597656 15-15 15h-60v61c0 8.398438-6.597656 15-15 15h-30c-8.402344 0-15-6.601562-15-15v-61h-60c-8.402344 0-15-6.601562-15-15v-30c0-8.402344 6.597656-15 15-15h60v-50.800781c-43.199219-12.898438-75-52.800781-75-100.199219h60c0 24.898438 20.097656 45 45 45s45-20.101562 45-45h60c0 28.5-11.398438 54.300781-30 73.199219-12.300781 12.601562-27.898438 21.601562-45 27v50.800781h60c8.402344 0 15 6.597656 15 15zm0 0" fill="#b760ea"/></svg>